<?xml version="1.0" encoding="UTF-8" standalone="no"?><svg xmlns="http://www.w3.org/2000/svg" xmlns:xlink="http://www.w3.org/1999/xlink" contentScriptType="application/ecmascript" contentStyleType="text/css" height="250px" preserveAspectRatio="none" style="width:253px;height:250px;background:#FFFFFF;" version="1.1" viewBox="0 0 253 250" width="253px" zoomAndPan="magnify"><defs><filter height="300%" id="fdssd70endyiy" width="300%" x="-1" y="-1"><feGaussianBlur result="blurOut" stdDeviation="2.0"/><feColorMatrix in="blurOut" result="blurOut2" type="matrix" values="0 0 0 0 0 0 0 0 0 0 0 0 0 0 0 0 0 0 .4 0"/><feOffset dx="4.0" dy="4.0" in="blurOut2" result="blurOut3"/><feBlend in="SourceGraphic" in2="blurOut3" mode="normal"/></filter></defs><g><!--MD5=[2f4e497837a991172d40b04b7a7d0ca2]
class Singleton--><rect codeLine="1" fill="#FEFECE" filter="url(#fdssd70endyiy)" height="144.8516" id="Singleton" style="stroke:#A80036;stroke-width:1.5;" width="135" x="57.5" y="92"/><ellipse cx="95.45" cy="108" fill="#ADD1B2" rx="11" ry="11" style="stroke:#A80036;stroke-width:1.0;"/><path d="M98.2156,103.875 Q98.3719,103.6563 98.5594,103.5469 Q98.7469,103.4375 98.9656,103.4375 Q99.3406,103.4375 99.575,103.7031 Q99.8094,103.9531 99.8094,104.5625 L99.8094,106.0156 Q99.8094,106.625 99.575,106.8906 Q99.3406,107.1563 98.9656,107.1563 Q98.6219,107.1563 98.4188,106.9531 Q98.2156,106.7656 98.1063,106.25 Q98.0594,105.8906 97.8719,105.7031 Q97.5438,105.3281 96.9344,105.1094 Q96.325,104.8906 95.7,104.8906 Q94.9344,104.8906 94.2938,105.2188 Q93.6688,105.5469 93.1688,106.2969 Q92.6844,107.0469 92.6844,108.0781 L92.6844,109.1719 Q92.6844,110.4063 93.575,111.2344 Q94.4656,112.0469 96.0594,112.0469 Q96.9969,112.0469 97.6531,111.7969 Q98.0438,111.6406 98.4656,111.2031 Q98.7313,110.9375 98.8719,110.8594 Q99.0281,110.7813 99.2313,110.7813 Q99.5594,110.7813 99.8094,111.0469 Q100.075,111.2969 100.075,111.6406 Q100.075,111.9844 99.7313,112.3906 Q99.2313,112.9688 98.4344,113.2969 Q97.3563,113.75 96.0594,113.75 Q94.5438,113.75 93.3406,113.125 Q92.3563,112.625 91.6688,111.5625 Q90.9813,110.4844 90.9813,109.2031 L90.9813,108.0469 Q90.9813,106.7188 91.5906,105.5781 Q92.2156,104.4219 93.3094,103.8125 Q94.4031,103.1875 95.6375,103.1875 Q96.3719,103.1875 97.0125,103.3594 Q97.6688,103.5156 98.2156,103.875 Z " fill="#000000"/><text fill="#000000" font-family="sans-serif" font-size="12" lengthAdjust="spacing" textLength="52" x="114.55" y="112.9102">Singleton</text><line style="stroke:#A80036;stroke-width:1.5;" x1="58.5" x2="191.5" y1="124" y2="124"/><text fill="#000000" font-family="sans-serif" font-size="11" lengthAdjust="spacing" textLength="102" x="63.5" y="139.4189">static uniqueInstance</text><text fill="#000000" font-family="sans-serif" font-size="11" lengthAdjust="spacing" textLength="65" x="63.5" y="153.2549">singletonData</text><line style="stroke:#A80036;stroke-width:1.5;" x1="58.5" x2="191.5" y1="159.6719" y2="159.6719"/><text fill="#000000" font-family="sans-serif" font-size="11" lengthAdjust="spacing" textLength="78" x="63.5" y="175.0908">static Instance()</text><text fill="#000000" font-family="sans-serif" font-size="11" lengthAdjust="spacing" textLength="99" x="63.5" y="188.9268">SingeltonOperation()</text><text fill="#000000" font-family="sans-serif" font-size="11" lengthAdjust="spacing" textLength="91" x="63.5" y="202.7627">GetSingletonData()</text><text fill="#000000" font-family="sans-serif" font-size="11" lengthAdjust="spacing" textLength="123" x="63.5" y="216.5986">Register(name, singleton)</text><text fill="#000000" font-family="sans-serif" font-size="11" lengthAdjust="spacing" textLength="69" x="63.5" y="230.4346">Lookup(name)</text><path d="M6,6 L6,32.3516 A0,0 0 0 0 6,32.3516 L121,32.3516 L125,91.78 L129,32.3516 L244,32.3516 A0,0 0 0 0 244,32.3516 L244,16 L234,6 L6,6 A0,0 0 0 0 6,6 " fill="#FBFB77" filter="url(#fdssd70endyiy)" style="stroke:#A80036;stroke-width:1.0;"/><path d="M234,6 L234,16 L244,16 L234,6 " fill="#FBFB77" style="stroke:#A80036;stroke-width:1.0;"/><text fill="#000000" font-family="sans-serif" font-size="13" lengthAdjust="spacing" textLength="217" x="12" y="24.4951">Instance() returns Lookup(DEFAULT);</text><!--MD5=[aa70e37f035ea172cc5dba467e9e1a4f]
@startuml
class Singleton {
  static Instance()
  SingeltonOperation()
  GetSingletonData()
  Register(name, singleton)
  Lookup(name)

  static uniqueInstance
  singletonData
}
note "Instance() returns Lookup(DEFAULT);" as n1
n1 .. Singleton
@enduml

PlantUML version 1.2021.16(Wed Dec 08 18:25:22 CET 2021)
(GPL source distribution)
Java Runtime: OpenJDK Runtime Environment
JVM: OpenJDK 64-Bit Server VM
Default Encoding: Cp1252
Language: de
Country: CH
--></g></svg>