<?xml version="1.0" encoding="UTF-8" standalone="no"?><svg xmlns="http://www.w3.org/2000/svg" xmlns:xlink="http://www.w3.org/1999/xlink" contentScriptType="application/ecmascript" contentStyleType="text/css" height="223px" preserveAspectRatio="none" style="width:228px;height:223px;background:#FFFFFF;" version="1.1" viewBox="0 0 228 223" width="228px" zoomAndPan="magnify"><defs><filter height="300%" id="f1p3lj0rw82hld" width="300%" x="-1" y="-1"><feGaussianBlur result="blurOut" stdDeviation="2.0"/><feColorMatrix in="blurOut" result="blurOut2" type="matrix" values="0 0 0 0 0 0 0 0 0 0 0 0 0 0 0 0 0 0 .4 0"/><feOffset dx="4.0" dy="4.0" in="blurOut2" result="blurOut3"/><feBlend in="SourceGraphic" in2="blurOut3" mode="normal"/></filter></defs><g><!--MD5=[2f4e497837a991172d40b04b7a7d0ca2]
class Singleton--><rect codeLine="1" fill="#FEFECE" filter="url(#f1p3lj0rw82hld)" height="117.1797" id="Singleton" style="stroke:#A80036;stroke-width:1.5;" width="114" x="55.5" y="92"/><ellipse cx="84" cy="108" fill="#ADD1B2" rx="11" ry="11" style="stroke:#A80036;stroke-width:1.0;"/><path d="M86.7656,103.875 Q86.9219,103.6563 87.1094,103.5469 Q87.2969,103.4375 87.5156,103.4375 Q87.8906,103.4375 88.125,103.7031 Q88.3594,103.9531 88.3594,104.5625 L88.3594,106.0156 Q88.3594,106.625 88.125,106.8906 Q87.8906,107.1563 87.5156,107.1563 Q87.1719,107.1563 86.9688,106.9531 Q86.7656,106.7656 86.6563,106.25 Q86.6094,105.8906 86.4219,105.7031 Q86.0938,105.3281 85.4844,105.1094 Q84.875,104.8906 84.25,104.8906 Q83.4844,104.8906 82.8438,105.2188 Q82.2188,105.5469 81.7188,106.2969 Q81.2344,107.0469 81.2344,108.0781 L81.2344,109.1719 Q81.2344,110.4063 82.125,111.2344 Q83.0156,112.0469 84.6094,112.0469 Q85.5469,112.0469 86.2031,111.7969 Q86.5938,111.6406 87.0156,111.2031 Q87.2813,110.9375 87.4219,110.8594 Q87.5781,110.7813 87.7813,110.7813 Q88.1094,110.7813 88.3594,111.0469 Q88.625,111.2969 88.625,111.6406 Q88.625,111.9844 88.2813,112.3906 Q87.7813,112.9688 86.9844,113.2969 Q85.9063,113.75 84.6094,113.75 Q83.0938,113.75 81.8906,113.125 Q80.9063,112.625 80.2188,111.5625 Q79.5313,110.4844 79.5313,109.2031 L79.5313,108.0469 Q79.5313,106.7188 80.1406,105.5781 Q80.7656,104.4219 81.8594,103.8125 Q82.9531,103.1875 84.1875,103.1875 Q84.9219,103.1875 85.5625,103.3594 Q86.2188,103.5156 86.7656,103.875 Z " fill="#000000"/><text fill="#000000" font-family="sans-serif" font-size="12" lengthAdjust="spacing" textLength="52" x="101" y="112.9102">Singleton</text><line style="stroke:#A80036;stroke-width:1.5;" x1="56.5" x2="168.5" y1="124" y2="124"/><text fill="#000000" font-family="sans-serif" font-size="11" lengthAdjust="spacing" textLength="102" x="61.5" y="139.4189">static uniqueInstance</text><text fill="#000000" font-family="sans-serif" font-size="11" lengthAdjust="spacing" textLength="65" x="61.5" y="153.2549">singletonData</text><line style="stroke:#A80036;stroke-width:1.5;" x1="56.5" x2="168.5" y1="159.6719" y2="159.6719"/><text fill="#000000" font-family="sans-serif" font-size="11" lengthAdjust="spacing" textLength="78" x="61.5" y="175.0908">static Instance()</text><text fill="#000000" font-family="sans-serif" font-size="11" lengthAdjust="spacing" textLength="99" x="61.5" y="188.9268">SingeltonOperation()</text><text fill="#000000" font-family="sans-serif" font-size="11" lengthAdjust="spacing" textLength="91" x="61.5" y="202.7627">GetSingletonData()</text><path d="M6,6 L6,32.3516 A0,0 0 0 0 6,32.3516 L108.5,32.3516 L112.5,91.98 L116.5,32.3516 L219,32.3516 A0,0 0 0 0 219,32.3516 L219,16 L209,6 L6,6 A0,0 0 0 0 6,6 " fill="#FBFB77" filter="url(#f1p3lj0rw82hld)" style="stroke:#A80036;stroke-width:1.0;"/><path d="M209,6 L209,16 L219,16 L209,6 " fill="#FBFB77" style="stroke:#A80036;stroke-width:1.0;"/><text fill="#000000" font-family="sans-serif" font-size="13" lengthAdjust="spacing" textLength="192" x="12" y="24.4951">Instance() returns uniqueInstance</text><!--MD5=[e9b8b4b62c0275641b5e153b051dce93]
@startuml
class Singleton {
  static Instance()
  SingeltonOperation()
  GetSingletonData()

  static uniqueInstance
  singletonData
}
note "Instance() returns uniqueInstance" as n1
n1 .. Singleton
@enduml

PlantUML version 1.2021.16(Wed Dec 08 18:25:22 CET 2021)
(GPL source distribution)
Java Runtime: OpenJDK Runtime Environment
JVM: OpenJDK 64-Bit Server VM
Default Encoding: Cp1252
Language: de
Country: CH
--></g></svg>