<?xml version="1.0" encoding="UTF-8" standalone="no"?><svg xmlns="http://www.w3.org/2000/svg" xmlns:xlink="http://www.w3.org/1999/xlink" contentScriptType="application/ecmascript" contentStyleType="text/css" height="345px" preserveAspectRatio="none" style="width:255px;height:345px;background:#FFFFFF;" version="1.1" viewBox="0 0 255 345" width="255px" zoomAndPan="magnify"><defs><filter height="300%" id="f7q27zdap6b3k" width="300%" x="-1" y="-1"><feGaussianBlur result="blurOut" stdDeviation="2.0"/><feColorMatrix in="blurOut" result="blurOut2" type="matrix" values="0 0 0 0 0 0 0 0 0 0 0 0 0 0 0 0 0 0 .4 0"/><feOffset dx="4.0" dy="4.0" in="blurOut2" result="blurOut3"/><feBlend in="SourceGraphic" in2="blurOut3" mode="normal"/></filter></defs><g><path d="M62.5,6 L62.5,32.3516 A0,0 0 0 0 62.5,32.3516 L119.5,32.3516 L123.5,91.96 L127.5,32.3516 L184.5,32.3516 A0,0 0 0 0 184.5,32.3516 L184.5,16 L174.5,6 L62.5,6 A0,0 0 0 0 62.5,6 " fill="#FBFB77" filter="url(#f7q27zdap6b3k)" style="stroke:#A80036;stroke-width:1.0;"/><path d="M174.5,6 L174.5,16 L184.5,16 L174.5,6 " fill="#FBFB77" style="stroke:#A80036;stroke-width:1.0;"/><text fill="#000000" font-family="sans-serif" font-size="13" lengthAdjust="spacing" textLength="101" x="68.5" y="24.4951">state --&gt; Handle()</text><rect fill="#FEFECE" filter="url(#f7q27zdap6b3k)" height="39.6719" style="stroke:#A80036;stroke-width:1.5;" width="56" x="95.5" y="92"/><text fill="#000000" font-family="sans-serif" font-size="12" lengthAdjust="spacing" textLength="41" x="103" y="106.457">Context</text><line style="stroke:#A80036;stroke-width:1.5;" x1="96.5" x2="150.5" y1="111.0938" y2="111.0938"/><text fill="#000000" font-family="sans-serif" font-size="10" lengthAdjust="spacing" textLength="44" x="101.5" y="125.4746">Request()</text><rect fill="#FEFECE" filter="url(#f7q27zdap6b3k)" height="39.6719" style="stroke:#A80036;stroke-width:1.5;" width="52" x="97.5" y="192"/><text fill="#000000" font-family="sans-serif" font-size="12" lengthAdjust="spacing" textLength="28" x="109.5" y="206.457">State</text><line style="stroke:#A80036;stroke-width:1.5;" x1="98.5" x2="148.5" y1="211.0938" y2="211.0938"/><text fill="#000000" font-family="sans-serif" font-size="10" lengthAdjust="spacing" textLength="40" x="103.5" y="225.4746">Handle()</text><rect fill="#FEFECE" filter="url(#f7q27zdap6b3k)" height="39.6719" style="stroke:#A80036;stroke-width:1.5;" width="99" x="7" y="292"/><text fill="#000000" font-family="sans-serif" font-size="12" lengthAdjust="spacing" textLength="85" x="14" y="306.457">ConcreteStateA</text><line style="stroke:#A80036;stroke-width:1.5;" x1="8" x2="105" y1="311.0938" y2="311.0938"/><text fill="#000000" font-family="sans-serif" font-size="10" lengthAdjust="spacing" textLength="40" x="13" y="325.4746">Handle()</text><rect fill="#FEFECE" filter="url(#f7q27zdap6b3k)" height="39.6719" style="stroke:#A80036;stroke-width:1.5;" width="100" x="141.5" y="292"/><text fill="#000000" font-family="sans-serif" font-size="12" lengthAdjust="spacing" textLength="86" x="148.5" y="306.457">ConcreteStateB</text><line style="stroke:#A80036;stroke-width:1.5;" x1="142.5" x2="240.5" y1="311.0938" y2="311.0938"/><text fill="#000000" font-family="sans-serif" font-size="10" lengthAdjust="spacing" textLength="40" x="147.5" y="325.4746">Handle()</text><!--MD5=[64495b8fbf9e79a080f449d41e5a6213]
link Context to State--><path codeLine="11" d="M123.5,144.36 C123.5,144.36 123.5,167.96 123.5,178.59 " fill="none" id="Context-State" style="stroke:#A80036;stroke-width:1.0;"/><polygon fill="#A80036" points="123.5,191.68,127.5,182.68,123.5,186.68,119.5,182.68,123.5,191.68" style="stroke:#A80036;stroke-width:1.0;"/><line style="stroke:#A80036;stroke-width:1.0;" x1="123.5" x2="123.5" y1="186.68" y2="178.68"/><polygon fill="#FFFFFF" points="123.5,132.36,119.5,138.36,123.5,144.36,127.5,138.36,123.5,132.36" style="stroke:#A80036;stroke-width:1.0;"/><text fill="#000000" font-family="sans-serif" font-size="13" lengthAdjust="spacing" textLength="29" x="90.7844" y="153.2095">state</text><!--MD5=[84aa1ab688926a3061fa5ce935c50cce]
reverse link State to ConcreteStateA--><path codeLine="21" d="M98.67,249.31 C88.85,263.68 77.96,279.61 69.71,291.68 " fill="none" id="State-backto-ConcreteStateA" style="stroke:#A80036;stroke-width:1.0;"/><polygon fill="none" points="93.2,244.92,110.26,232.36,104.75,252.82,93.2,244.92" style="stroke:#A80036;stroke-width:1.0;"/><!--MD5=[6c5de783058e39e318d63f080b303e10]
reverse link State to ConcreteStateB--><path codeLine="22" d="M148.37,248.84 C158.42,263.33 169.62,279.47 178.09,291.68 " fill="none" id="State-backto-ConcreteStateB" style="stroke:#A80036;stroke-width:1.0;"/><polygon fill="none" points="142.59,252.78,136.93,232.36,154.09,244.8,142.59,252.78" style="stroke:#A80036;stroke-width:1.0;"/><!--MD5=[fd112964be91a4e7bcbc9bfd17d38532]
@startuml
note "state - -> Handle()" as n1
n1 .. Context
object Context {
  Request()
}

object State {
  Handle()
}

Context "state" o- -> State

object ConcreteStateA {
  Handle()
}

object ConcreteStateB {
  Handle()
}

State <|- - ConcreteStateA
State <|- - ConcreteStateB
@enduml

PlantUML version 1.2021.16(Wed Dec 08 18:25:22 CET 2021)
(GPL source distribution)
Java Runtime: OpenJDK Runtime Environment
JVM: OpenJDK 64-Bit Server VM
Default Encoding: Cp1252
Language: de
Country: CH
--></g></svg>